<?xml version="1.0" encoding="UTF-8"?>
<svg version="1.1" xmlns="http://www.w3.org/2000/svg" width="512" height="512">
<path d="M0 0 C2.47969161 2.19662179 4.90300557 4.44192832 7.31640625 6.7109375 C7.95707031 7.27554688 8.59773438 7.84015625 9.2578125 8.421875 C48.22232812 44.37660549 72.87271545 109.91731003 78.08056641 161.54394531 C78.23394919 162.95328855 78.41703119 164.35982151 78.63427734 165.76074219 C81.05583893 181.81465606 73.40763056 193.40758753 65.26220703 206.56201172 C63.00203482 210.21969067 60.83921476 213.92726978 58.68505859 217.64794922 C56.92226341 220.68522885 55.12192832 223.69890186 53.31640625 226.7109375 C58.23149162 227.1320333 62.54928842 227.05973326 67.31640625 225.7109375 C71.11191001 221.96425051 73.10961692 217.48263873 75.31640625 212.7109375 C75.97985442 211.38354921 76.64905851 210.0590236 77.32373047 208.73730469 C78.6949725 206.04041837 80.04125051 203.33323528 81.37011719 200.61523438 C84.16885802 194.93849388 87.30653685 189.45700519 90.44140625 183.9609375 C91.58483285 181.92792598 92.72676132 179.89407113 93.8671875 177.859375 C94.43131348 176.85487305 94.99543945 175.85037109 95.57666016 174.81542969 C97.38502655 171.58848791 99.18555076 168.35726974 100.984375 165.125 C111.41975634 146.38742147 111.41975634 146.38742147 116.56640625 137.7109375 C116.92516846 137.09976074 117.28393066 136.48858398 117.65356445 135.85888672 C120.07540291 131.83143917 120.07540291 131.83143917 122.31640625 130.7109375 C129.41074587 130.0131336 129.41074587 130.0131336 132.69921875 132.546875 C136.48724718 136.6575202 138.81847677 141.79216667 141.37890625 146.7109375 C142.53575008 148.89039118 143.69464256 151.06875855 144.85546875 153.24609375 C145.43586914 154.33680176 146.01626953 155.42750977 146.61425781 156.55126953 C149.0810132 161.13026383 151.65530173 165.64331692 154.25390625 170.1484375 C158.61495763 177.72597176 162.92477427 185.32979857 167.19140625 192.9609375 C167.77583496 194.00612549 168.36026367 195.05131348 168.96240234 196.12817383 C170.15179845 198.25619761 171.34092478 200.38437219 172.52978516 202.51269531 C175.47699161 207.788509 178.42731744 213.06257449 181.37890625 218.3359375 C181.95229736 219.36041992 182.52568848 220.38490234 183.11645508 221.44042969 C187.71141037 229.644087 192.33211043 237.83302672 196.96704102 246.01416016 C197.95123467 247.75205863 198.93327412 249.49117935 199.9128418 251.23168945 C200.85622552 252.89807695 201.81103899 254.55804052 202.77661133 256.21166992 C203.23060303 256.99904541 203.68459473 257.7864209 204.15234375 258.59765625 C204.55630371 259.28819092 204.96026367 259.97872559 205.37646484 260.69018555 C207.04645658 264.28045089 206.91240393 266.80384158 206.31640625 270.7109375 C204.84893799 272.9130249 204.84893799 272.9130249 202.31640625 274.7109375 C199.28772888 275.28564779 196.30765965 275.21617469 193.23339844 275.16503906 C191.85726883 275.16591522 191.85726883 275.16591522 190.45333862 275.16680908 C187.42293373 275.16402381 184.39351417 275.13291058 181.36328125 275.1015625 C179.26150042 275.0941017 177.15971263 275.08840801 175.05792236 275.08441162 C169.52739235 275.06914274 163.99728286 275.02984978 158.46691895 274.9855957 C152.82305592 274.94467025 147.17912491 274.92640641 141.53515625 274.90625 C130.46205487 274.86335702 119.38926554 274.79509024 108.31640625 274.7109375 C106.7583173 290.41665307 106.53312121 302.19827427 114.25390625 316.0859375 C114.98422497 317.49962396 115.70827439 318.91656411 116.42651367 320.33642578 C117.92594766 323.29256746 119.44756274 326.23551922 120.98535156 329.171875 C124.58383355 336.10624197 127.83777704 343.20157198 131.08279419 350.30645752 C132.10025682 352.52351035 133.13528429 354.73160941 134.17358398 356.93896484 C139.65253468 368.70770841 142.88970225 379.44745911 142.75390625 392.5234375 C142.74560791 393.56733643 142.73730957 394.61123535 142.72875977 395.68676758 C142.23881617 418.23289083 131.62338761 434.87935328 115.8203125 450.15625 C115.25566788 450.70297363 114.69102325 451.24969727 114.10926819 451.81298828 C111.77728177 454.06276957 109.44089984 456.30699338 107.08129883 458.52783203 C97.9396112 467.03181785 97.9396112 467.03181785 94.31640625 478.7109375 C92.2370768 481.48025243 91.05361944 482.57393012 87.61847687 483.21233416 C86.57717369 483.21298357 85.53587051 483.21363297 84.4630127 483.21430206 C83.25922722 483.22473305 82.05544174 483.23516404 80.81517792 483.24591112 C79.47769433 483.2372627 78.14021314 483.22823607 76.80273438 483.21887207 C75.38319508 483.22347969 73.96366056 483.22983168 72.54413605 483.23778105 C68.63862515 483.25451686 64.73350399 483.24620895 60.82799149 483.23383617 C56.61796647 483.22480528 52.40800962 483.23874563 48.19799805 483.24975586 C39.94873543 483.2675667 31.69961818 483.26368971 23.45034981 483.2521053 C16.74756805 483.24308131 10.0448271 483.24184248 3.34204102 483.24620056 C2.3890136 483.24681349 1.43598619 483.24742643 0.45407915 483.24805793 C-1.4818198 483.2493368 -3.41771874 483.25063365 -5.35361767 483.2519483 C-23.51768858 483.26336161 -41.68167882 483.25022862 -59.8457365 483.22874683 C-75.44016683 483.21087517 -91.03447807 483.21397907 -106.62890625 483.23242188 C-124.72681897 483.25381534 -142.82466094 483.2622629 -160.92258453 483.24997282 C-162.85146585 483.24869859 -164.78034718 483.24744111 -166.70922852 483.24620056 C-168.13289521 483.24527491 -168.13289521 483.24527491 -169.58532286 483.24433056 C-176.28207818 483.24087308 -182.97878872 483.24671455 -189.67553711 483.25611877 C-197.83376504 483.26732322 -205.99183898 483.26433155 -214.15004921 483.2429958 C-218.31460676 483.23246435 -222.47890733 483.22839898 -226.64346313 483.24159241 C-230.45309723 483.25347914 -234.26223523 483.24701598 -238.07182407 483.2256822 C-239.45264983 483.22120023 -240.83351718 483.22351806 -242.21431637 483.23318535 C-244.08624909 483.24528962 -245.95829861 483.23052238 -247.8302002 483.21430206 C-249.39215496 483.21332795 -249.39215496 483.21332795 -250.98566437 483.21233416 C-254.38105465 482.58131789 -255.56067237 481.37833148 -257.68359375 478.7109375 C-258.29295349 476.5894165 -258.29295349 476.5894165 -258.54467773 474.38378906 C-259.54828785 469.07379026 -262.01080452 466.52248897 -265.90625 462.9453125 C-266.52576035 462.34519348 -267.14527069 461.74507446 -267.78355408 461.12677002 C-269.75498982 459.22049459 -271.74801309 457.33923496 -273.74609375 455.4609375 C-285.90639329 443.94444501 -296.75103559 432.76374192 -302.68359375 416.7109375 C-303.00199219 415.88335937 -303.32039063 415.05578125 -303.6484375 414.203125 C-311.57874282 389.13312754 -302.39320085 366.37158439 -291.38813782 344.21348572 C-288.0323176 337.43551572 -284.8544849 330.57685798 -281.68359375 323.7109375 C-281.15644775 322.57309814 -280.62930176 321.43525879 -280.08618164 320.26293945 C-279.08322801 318.09497592 -278.09020781 315.92238372 -277.1081543 313.74487305 C-275.68359375 310.7109375 -275.68359375 310.7109375 -274.17504883 308.03051758 C-270.10769459 300.49115196 -270.37675137 293.86157895 -271.16253662 285.60443115 C-271.44637671 282.60213894 -271.6619377 279.59608519 -271.88122559 276.58850098 C-271.99124624 275.08461515 -272.10426113 273.58094524 -272.22033691 272.07751465 C-272.70601182 265.74828921 -272.99448858 259.43457876 -273.05859375 253.0859375 C-273.08397217 252.23604248 -273.10935059 251.38614746 -273.13549805 250.51049805 C-273.1611852 243.68257557 -271.23163858 238.61864671 -266.71875 233.46875 C-266.06777344 232.92992187 -265.41679687 232.39109375 -264.74609375 231.8359375 C-264.09769531 231.28164063 -263.44929688 230.72734375 -262.78125 230.15625 C-257.51291369 226.52629761 -252.85174296 226.43841599 -246.6640625 226.515625 C-245.37620598 226.51986984 -245.37620598 226.51986984 -244.06233215 226.52420044 C-241.331775 226.5353568 -238.60155105 226.56045291 -235.87109375 226.5859375 C-234.01497871 226.59597318 -232.15885851 226.605098 -230.30273438 226.61328125 C-225.76289329 226.63528124 -221.22329994 226.66977969 -216.68359375 226.7109375 C-217.1211499 225.94652344 -217.55870605 225.18210938 -218.00952148 224.39453125 C-221.88529086 217.62199484 -225.75642208 210.84684607 -229.62217712 204.06858826 C-231.64261406 200.52788591 -233.67306111 196.99329937 -235.71484375 193.46484375 C-236.51704276 192.06777475 -237.31913837 190.67064636 -238.12109375 189.2734375 C-238.47937256 188.66177734 -238.83765137 188.05011719 -239.20678711 187.41992188 C-248.98372233 170.28513754 -238.88851259 139.69740613 -234.1875 121.87109375 C-222.70548805 80.81602029 -201.02151559 38.85347668 -171.68359375 7.7109375 C-170.69166016 6.60492188 -170.69166016 6.60492188 -169.6796875 5.4765625 C-125.8800335 -41.39820952 -47.05637857 -40.13833747 0 0 Z " fill="#000000" transform="translate(305.68359375,29.2890625)"/>
<path d="M0 0 C1.27017336 -0.00427212 2.54034671 -0.00854425 3.84901017 -0.01294583 C7.37248686 -0.02412621 10.89520365 -0.00412725 14.41858351 0.02094448 C18.21880347 0.04253084 22.01898036 0.03523035 25.81924438 0.03143311 C32.40270458 0.02881095 38.98591707 0.04450231 45.56931496 0.0726223 C55.08776699 0.11325247 64.60609921 0.12627901 74.12462857 0.13256226 C89.56762526 0.14350621 105.01048992 0.17678312 120.45341492 0.22407532 C135.4550358 0.26996831 150.45662082 0.30536149 165.45829773 0.32661438 C166.38295274 0.327928 167.30760775 0.32924161 168.26028261 0.33059504 C172.8989913 0.33712021 177.53770025 0.34343876 182.17640936 0.34965456 C220.66100822 0.4014907 259.14545969 0.48955872 297.62992859 0.60127258 C295.9266908 6.010165 293.44471615 10.48940246 290.37602234 15.21455383 C287.54802044 19.86573644 287.00504641 23.15911686 287.62992859 28.60127258 C289.13800838 30.61845937 290.02828792 31.47362489 292.50924683 32 C293.21318069 32.01110306 293.91711456 32.02220612 294.64237976 32.03364563 C295.44298325 32.05343979 296.24358673 32.07323395 297.06845093 32.09362793 C298.3576519 32.10321281 298.3576519 32.10321281 299.67289734 32.11299133 C300.55649429 32.13094254 301.44009125 32.14889374 302.35046387 32.16738892 C305.17273689 32.22157254 307.99484003 32.25541319 310.81742859 32.28877258 C312.73086373 32.32193858 314.64427643 32.35642756 316.55766296 32.39228821 C321.24829574 32.47730358 325.93887743 32.5440762 330.62992859 32.60127258 C329.97742957 54.45728209 328.45311852 76.24516124 326.95880127 98.05590439 C326.33982039 107.11223489 325.73148378 116.16929116 325.12211609 125.22627258 C325.05582001 126.2101338 324.98952393 127.19399502 324.92121887 128.20767021 C323.71380901 146.13974823 322.58751626 164.07515041 321.56791687 182.01899719 C320.75075758 196.23206751 319.68219939 210.39561678 318.62992859 224.60127258 C212.36992859 224.60127258 106.10992859 224.60127258 -3.37007141 224.60127258 C-6.17074943 184.83164468 -8.93018612 145.10481617 -11.32319641 105.31611633 C-12.06105586 93.17862391 -12.87738524 81.0476407 -13.72944641 68.91767883 C-13.78731827 68.09267694 -13.84519012 67.26767506 -13.90481567 66.41767311 C-14.47273048 58.3288581 -15.04576855 50.24043564 -15.63062668 42.15282726 C-15.8448675 39.18148789 -16.05616157 36.20994315 -16.26692963 33.23835564 C-16.41168321 31.21394218 -16.56068858 29.18983412 -16.70985413 27.16574097 C-16.95917067 23.64528726 -17.17203626 20.1249348 -17.37007141 16.60127258 C-17.44729431 15.55574219 -17.52451721 14.51021179 -17.6040802 13.43299866 C-17.6496405 12.46678589 -17.69520081 11.50057312 -17.74214172 10.50508118 C-17.79154907 9.67334381 -17.84095642 8.84160645 -17.89186096 7.98466492 C-17.28921164 5.23192719 -16.26375404 3.61008637 -14.22140157 1.67082238 C-9.99866755 -0.76873401 -4.72891511 -0.05779723 0 0 Z " fill="#61B4E7" transform="translate(66.37007141113281,271.3987274169922)"/>
<path d="M0 0 C0.89976562 0.74636719 1.79953125 1.49273437 2.7265625 2.26171875 C3.98339844 3.27298828 3.98339844 3.27298828 5.265625 4.3046875 C37.84992024 31.8720357 64.06537715 85.09907881 71.7265625 126.26171875 C71.3965625 127.25171875 71.0665625 128.24171875 70.7265625 129.26171875 C69.79263672 128.47861328 69.79263672 128.47861328 68.83984375 127.6796875 C50.71213271 113.24325374 28.15555867 103.70144941 5.7265625 98.26171875 C4.9320166 98.06336426 4.1374707 97.86500977 3.31884766 97.66064453 C-25.14867718 90.69277344 -54.10589314 89.57023748 -83.2734375 90.26171875 C-84.56241943 90.28492188 -84.56241943 90.28492188 -85.87744141 90.30859375 C-125.63935815 91.14513638 -175.1086733 101.55776426 -205.2734375 129.26171875 C-206.45240904 125.72480412 -206.02710235 124.63337394 -204.97265625 121.125 C-204.66030029 120.08504883 -204.34794434 119.04509766 -204.02612305 117.97363281 C-203.67461182 116.85182617 -203.32310059 115.73001953 -202.9609375 114.57421875 C-202.41723511 112.83156738 -202.41723511 112.83156738 -201.86254883 111.05371094 C-187.02770402 64.67162672 -161.07605441 11.87014434 -116.2734375 -11.73828125 C-107.56894417 -16.14650537 -98.8406481 -18.92794441 -89.2734375 -20.73828125 C-88.36851562 -20.94324219 -87.46359375 -21.14820312 -86.53125 -21.359375 C-56.65170529 -27.49610869 -23.74827002 -18.85138955 0 0 Z " fill="#79828A" transform="translate(291.2734375,38.73828125)"/>
<path d="M0 0 C1.23033523 13.30209497 2.31944468 26.61570701 3.3125 39.9375 C3.37232056 40.73983063 3.43214111 41.54216125 3.49377441 42.36880493 C4.51521866 56.21184303 5.3858398 70.06349763 6.234375 83.91796875 C6.34435513 85.70790226 6.45435585 87.4978345 6.56437683 89.2877655 C7.06336174 97.41711444 7.55899914 105.54661873 8.04136467 113.67697239 C8.2468517 117.12345197 8.45672291 120.5696563 8.66747284 124.01581764 C8.76493064 125.62605928 8.860481 127.23641778 8.95389557 128.84689903 C10.36024824 153.06073754 13.62574805 174.33931123 32 192 C49.48284983 206.54075213 67.98839059 207.44817391 89.67871094 207.43237305 C92.18291709 207.44139837 94.68711882 207.45172748 97.1913147 207.46325684 C102.56373887 207.48507822 107.93606693 207.49791165 113.30852509 207.50238609 C121.07597627 207.50887103 128.84331145 207.53184929 136.61071566 207.55872939 C149.21572115 207.60190828 161.82072172 207.63192571 174.42578125 207.65356445 C186.66343599 207.6746009 198.90105061 207.70189917 211.13867188 207.73754883 C212.27198817 207.74084707 212.27198817 207.74084707 213.42819974 207.74421193 C217.21890653 207.75528225 221.00961294 207.76647494 224.80031919 207.77772844 C256.20017936 207.87078743 287.60005414 207.94222269 319 208 C319 213.28 319 218.56 319 224 C212.74 224 106.48 224 -3 224 C-5.80067802 184.2303721 -8.56011471 144.50354359 -10.953125 104.71484375 C-11.69098445 92.57735132 -12.50731383 80.44636812 -13.359375 68.31640625 C-13.41724686 67.49140436 -13.47511871 66.66640247 -13.53474426 65.81640053 C-14.10265907 57.72758552 -14.67569714 49.63916305 -15.26055527 41.55155468 C-15.47479609 38.5802153 -15.68609016 35.60867057 -15.89685822 32.63708305 C-16.0416118 30.6126696 -16.19061717 28.58856154 -16.33978271 26.56446838 C-17.76791137 6.39869572 -17.76791137 6.39869572 -15.25 1.8125 C-10.30711939 -0.94410649 -5.53542981 -0.39727965 0 0 Z " fill="#43A6D7" transform="translate(66,272)"/>
<path d="M0 0 C9.56227605 8.89782787 15.63532996 19.81468286 16.546875 32.86328125 C16.99994087 47.55307089 12.84985083 60.20834667 2.8359375 71.09375 C-7.83115081 81.19771902 -20.89506494 85.36406347 -35.390625 85.09375 C-49.01769482 84.05301913 -59.34570048 77.52722672 -68.6640625 67.84375 C-77.7690012 56.8866289 -80.52720055 43.78183118 -79.6640625 29.84375 C-77.59696185 16.81050523 -70.87028312 6.08723589 -60.6640625 -2.15625 C-41.52356775 -14.69977811 -18.19797169 -14.72915011 0 0 Z " fill="#020202" transform="translate(255.6640625,347.15625)"/>
<path d="M0 0 C2.34322365 1.20539153 4.12132422 2.39156408 6.18212891 3.99291992 C18.12964796 13.15950084 28.1212676 13.96433076 42.84838867 13.62060547 C44.89069539 13.61362738 46.93302551 13.6116445 48.9753418 13.61474609 C53.91435219 13.61159946 58.84811389 13.54152607 63.78588867 13.43310547 C63.63661633 14.84475202 63.48513777 16.25616536 63.33276367 17.66748047 C63.20659668 18.84648926 63.20659668 18.84648926 63.07788086 20.04931641 C60.97571981 37.21110607 53.03242175 52.25189207 39.78588867 63.43310547 C24.97919705 74.54972818 7.16549292 79.44514585 -11.21411133 77.43310547 C-28.87539548 74.13062146 -44.68375087 64.26849889 -54.97973633 49.46044922 C-61.73141604 38.37145627 -66.33061939 26.55191334 -66.21411133 13.43310547 C-64.33091187 13.42694214 -64.33091187 13.42694214 -62.40966797 13.4206543 C-57.71834156 13.39875941 -53.02784155 13.34436285 -48.33691406 13.28051758 C-46.31290655 13.25742758 -44.28878041 13.24296314 -42.26464844 13.23754883 C-39.34211065 13.22819325 -36.4214155 13.18705921 -33.49926758 13.14013672 C-32.60514664 13.14406937 -31.7110257 13.14800201 -30.78981018 13.15205383 C-20.31269219 12.9128071 -13.13634657 6.82004925 -5.01098633 0.81201172 C-2.21411133 -0.56689453 -2.21411133 -0.56689453 0 0 Z " fill="#FBAA67" transform="translate(225.214111328125,178.56689453125)"/>
<path d="M0 0 C0.66 0 1.32 0 2 0 C2.62491333 1.13707397 2.62491333 1.13707397 3.26245117 2.29711914 C11.89360825 17.99368246 20.58174942 33.65360358 29.42773438 49.23046875 C34.2995676 57.81215758 39.15096365 66.4054159 44 75 C44.63244629 76.11987305 45.26489258 77.23974609 45.91650391 78.39355469 C47.86446631 81.84375596 49.80740476 85.29677383 51.75 88.75 C52.35900146 89.82813965 52.96800293 90.9062793 53.59545898 92.01708984 C54.15692627 93.01691895 54.71839355 94.01674805 55.296875 95.046875 C55.79541992 95.93213867 56.29396484 96.81740234 56.80761719 97.72949219 C58 100 58 100 59 103 C20.72 103 -17.56 103 -57 103 C-53.16824119 95.33648237 -49.31527701 87.85040099 -45.0625 80.4375 C-43.91705057 78.42630391 -42.77255933 76.41456187 -41.62890625 74.40234375 C-40.73969482 72.83782471 -40.73969482 72.83782471 -39.83251953 71.24169922 C-36.68832305 65.67966341 -33.59560661 60.08917882 -30.5 54.5 C-25.24251523 45.01410916 -19.93882848 35.55610784 -14.59106445 26.12084961 C-9.6752967 17.4426614 -4.8269937 8.72781479 0 0 Z " fill="#F6C35F" transform="translate(431,185)"/>
<path d="M0 0 C0.0640654 0.57834595 0.1281308 1.15669189 0.19413757 1.75256348 C0.87341679 7.85602164 1.57504496 13.95663422 2.28881836 20.05615234 C2.55121616 22.32276799 2.80819926 24.59001811 3.05932617 26.85791016 C6.07515153 54.01832544 12.43672291 78.72621867 34.56640625 96.7578125 C35.03949219 97.16773438 35.51257813 97.57765625 36 98 C36 98.33 36 98.66 36 99 C13.89 99 -8.22 99 -31 99 C-35.62 90.75 -40.24 82.5 -45 74 C-49.83466091 65.96768793 -49.83466091 65.96768793 -54.79492188 58.01367188 C-59.48163925 50.27292671 -59.48163925 50.27292671 -58.97265625 45.55859375 C-56.49037588 36.47683705 -51.56748144 30.68849031 -45 24 C-44.40574219 23.38125 -43.81148437 22.7625 -43.19921875 22.125 C-33.91961046 13.23632864 -13.04432704 0 0 0 Z " fill="#5C6871" transform="translate(139,157)"/>
<path d="M0 0 C14.64648114 4.73720134 29.12455627 11.05143603 41 21 C41.72058594 21.56074219 42.44117188 22.12148437 43.18359375 22.69921875 C50.25619268 28.43484246 56.34538751 36.20659613 59 45 C58.89025774 52.06923034 55.36080472 57.09563691 51.75 63 C44.59615977 74.87870215 37.83166556 86.91320709 31 99 C8.89 99 -13.22 99 -36 99 C-34.35 97.35 -32.7 95.7 -31 94 C-11.40206685 74.33812579 -6.28521318 52.21524103 -3.125 25.5 C-2.81689988 23.01930756 -2.50701727 20.53883583 -2.1953125 18.05859375 C-1.44298993 12.04145036 -0.71264991 6.02196415 0 0 Z " fill="#5C6871" transform="translate(309,157)"/>
<path d="M0 0 C0.99370605 0.15017578 1.98741211 0.30035156 3.01123047 0.45507812 C12.75996269 1.95601501 22.45926818 3.46786264 32 6 C31.88291924 7.93799467 31.75579489 9.87538257 31.625 11.8125 C31.55539062 12.89144531 31.48578125 13.97039062 31.4140625 15.08203125 C30.88257503 20.11110605 29.95762004 25.03691752 29 30 C-13.18726492 32.73221914 -13.18726492 32.73221914 -26.90893555 21.06787109 C-27.62090088 20.4383252 -28.33286621 19.8087793 -29.06640625 19.16015625 C-32.21947316 16.42616542 -34.69081832 14.68762402 -38.94165039 14.51000977 C-42.58745272 15.3778932 -44.99569244 17.86488523 -47.80249023 20.24780273 C-64.65994805 34.25637673 -84.34741696 31.4464671 -105 30 C-106.16890529 23.9418839 -107.22712996 17.97948568 -107.625 11.8125 C-107.69976562 10.70519531 -107.77453125 9.59789062 -107.8515625 8.45703125 C-107.90054688 7.64621094 -107.94953125 6.83539063 -108 6 C-73.17668728 -2.59362653 -35.63015172 -5.44143959 0 0 Z " fill="#60B2E4" transform="translate(262,146)"/>
<path d="M0 0 C6.30080524 4.47982784 11.92473197 11.7276776 13.3125 19.4375 C14.32481989 30.31592167 12.11761444 40.05515004 5.14453125 48.65234375 C-1.7408662 55.36156898 -10.08992614 58.42976974 -19.5625 58.8125 C-25.43854669 58.69527214 -29.66794567 57.43985025 -34.6875 54.4375 C-35.73744141 53.81875 -35.73744141 53.81875 -36.80859375 53.1875 C-44.18574415 48.27869671 -48.3361054 40.87045608 -50.6875 32.4375 C-51.56805277 24.27702844 -50.98966839 17.4871591 -46.6875 10.4375 C-46.26339844 9.73882812 -45.83929688 9.04015625 -45.40234375 8.3203125 C-34.72335 -7.44533287 -15.737631 -9.39997249 0 0 Z " fill="#F5C25F" transform="translate(242.6875,357.5625)"/>
<path d="M0 0 C0.66 0 1.32 0 2 0 C3.36402043 2.2863012 4.71634274 4.57821749 6.0625 6.875 C6.45244141 7.52597656 6.84238281 8.17695313 7.24414062 8.84765625 C8.22444533 10.53065725 9.11898432 12.26296199 10 14 C9 16 9 16 7 17 C7.99 18.485 7.99 18.485 9 20 C9.20808108 22.7710851 9.30402764 25.43916859 9.30078125 28.2109375 C9.30506638 29.01608795 9.3093515 29.8212384 9.31376648 30.65078735 C9.31950761 32.35377055 9.32001163 34.05677827 9.31567383 35.75976562 C9.31252002 38.3585018 9.33595315 40.95609259 9.36132812 43.5546875 C9.36360184 45.21093607 9.36430428 46.86718769 9.36328125 48.5234375 C9.372491 49.29754974 9.38170074 50.07166199 9.39118958 50.86923218 C9.35241263 55.41820382 8.84270933 58.39366176 6 62 C3.19084526 63.40457737 1.11189466 63.24895157 -2 63 C-5.1359157 61.22015595 -5.84102736 60.47691793 -7 57 C-7.22560676 54.60745424 -7.40848595 52.21071877 -7.5625 49.8125 C-7.64628906 48.54019531 -7.73007812 47.26789063 -7.81640625 45.95703125 C-7.87699219 44.98121094 -7.93757813 44.00539062 -8 43 C-8.5261792 43.93960571 -8.5261792 43.93960571 -9.06298828 44.89819336 C-9.56040527 45.78643799 -10.05782227 46.67468262 -10.5703125 47.58984375 C-11.13041016 48.59007568 -11.69050781 49.59030762 -12.26757812 50.62084961 C-13.51868248 52.85484707 -14.76998859 55.08873156 -16.02148438 57.32250977 C-19.29775795 63.17067974 -22.57064447 69.02068792 -25.8359375 74.875 C-26.45065918 75.97593994 -27.06538086 77.07687988 -27.69873047 78.21118164 C-28.86828766 80.30601741 -30.03665182 82.40151986 -31.20361328 84.49780273 C-32.27538041 86.4162308 -33.35670743 88.32935757 -34.44873047 90.23632812 C-35.49826986 92.10614019 -36.50172668 94.00244756 -37.46142578 95.91992188 C-38.82238357 98.50917266 -40.09282659 100.78164701 -42 103 C-45.32149335 103.83876095 -46.68305629 104.02708593 -49.875 103.625 C-50.56335938 103.57988281 -51.25171875 103.53476562 -51.9609375 103.48828125 C-53.64443777 103.37137151 -55.32340051 103.19197704 -57 103 C-52.87843877 94.24873986 -48.15518796 85.87284877 -43.37426758 77.47045898 C-39.03374581 69.84039365 -34.75312341 62.17909823 -30.5 54.5 C-25.24251523 45.01410916 -19.93882848 35.55610784 -14.59106445 26.12084961 C-9.6752967 17.4426614 -4.8269937 8.72781479 0 0 Z " fill="#F6AC41" transform="translate(431,185)"/>
<path d="M0 0 C-2.91227851 2.25684692 -5.91807362 4.20777979 -9.0625 6.125 C-15.12221664 9.96577912 -20.60575565 14.27700345 -26 19 C-27.08861328 19.94359375 -27.08861328 19.94359375 -28.19921875 20.90625 C-58.56950899 49.19945939 -76.40728676 93.40873325 -89 132 C-88.34 132.33 -87.68 132.66 -87 133 C-88.14275391 133.63615234 -88.14275391 133.63615234 -89.30859375 134.28515625 C-95.97472243 138.07178365 -102.10226134 142.10011106 -108 147 C-109.17897154 143.46308537 -108.75366485 142.37165519 -107.69921875 138.86328125 C-107.38686279 137.82333008 -107.07450684 136.78337891 -106.75268555 135.71191406 C-106.40117432 134.59010742 -106.04966309 133.46830078 -105.6875 132.3125 C-105.14379761 130.56984863 -105.14379761 130.56984863 -104.58911133 128.79199219 C-89.78031233 82.49134185 -63.81251505 29.48896071 -19 6 C-6.06273951 -0.43949227 -6.06273951 -0.43949227 0 0 Z " fill="#5B6770" transform="translate(194,21)"/>
<path d="M0 0 C2.51702974 1.25851487 2.69951643 2.15445285 3.8125 4.69921875 C4.16111084 5.48586914 4.50972168 6.27251953 4.86889648 7.08300781 C5.24216064 7.94249023 5.6154248 8.80197266 6 9.6875 C6.80255491 11.50948064 7.60597282 13.33108132 8.41015625 15.15234375 C9.04074951 16.58489502 9.04074951 16.58489502 9.68408203 18.04638672 C11.0109679 21.02461774 12.37205133 23.98466152 13.74609375 26.94140625 C14.19533203 27.91182861 14.64457031 28.88225098 15.10742188 29.88208008 C15.97495928 31.75266781 16.84714175 33.62111034 17.72460938 35.48706055 C24.15354564 49.43156871 25.22891331 63.8123678 20.24487305 78.40258789 C15.0849034 92.2570119 4.9143859 102.32162312 -6 112 C-6.33 112 -6.66 112 -7 112 C-6.32493857 89.81644284 -4.6907144 67.69480728 -3.14996338 45.55859375 C-2.79225123 40.40901854 -2.4382948 35.25918518 -2.08398438 30.109375 C-1.39291502 20.07266642 -0.69780688 10.03624225 0 0 Z " fill="#778087" transform="translate(409,362)"/>
<path d="M0 0 C0.33 0 0.66 0 1 0 C1.05819916 0.91057159 1.11639832 1.82114319 1.17636108 2.75930786 C1.73454505 11.49138003 2.29313202 20.22342632 2.8521328 28.95544624 C3.19511858 34.31339339 3.5377821 39.67136101 3.88016891 45.02934647 C4.10178132 48.49548293 4.32387925 51.96158824 4.54593658 55.42769623 C4.71065888 58.00345567 4.8745073 60.57926967 5.03826904 63.15509033 C5.54764899 71.14155334 6.07301251 79.12619384 6.64550781 87.10839844 C6.74494022 88.51463136 6.84427775 89.920871 6.94351196 91.32711792 C7.1270109 93.90573794 7.31563862 96.48400014 7.51034546 99.0617981 C7.59023712 100.19108734 7.67012878 101.32037659 7.75244141 102.48388672 C7.86091904 103.94748123 7.86091904 103.94748123 7.97158813 105.44064331 C7.99831917 107.84859022 7.71238195 109.71245725 7 112 C-8.45128075 97.34416773 -21.61355392 84.18558867 -22.46118164 61.59643555 C-22.74883734 45.59807497 -15.56338408 32.25200694 -8.75 18.1875 C-7.90021508 16.41641199 -7.05125054 14.64493011 -6.203125 12.87304688 C-4.14483595 8.57743692 -2.07555574 4.28729192 0 0 Z " fill="#788189" transform="translate(38,362)"/>
<path d="M0 0 C5.28 0 10.56 0 16 0 C16.23074219 1.37671875 16.46148437 2.7534375 16.69921875 4.171875 C20.43220144 25.60535232 28.09178159 44.70140708 46.48046875 57.76171875 C48.29527813 58.8827249 50.14364037 59.9492304 52 61 C52 61.33 52 61.66 52 62 C46.07300509 61.51266931 41.53777717 60.3194422 36.25 57.625 C35.56115723 57.27630859 34.87231445 56.92761719 34.16259766 56.56835938 C18.73428289 48.34850207 8.45017388 34.42463381 2.625 18.140625 C0.87118177 12.13379756 0 6.2489169 0 0 Z " fill="#E78C48" transform="translate(159,192)"/>
<path d="M0 0 C4.10877321 0.85599442 5.41574826 2.34044396 8 5.625 C8.47525207 8.62587739 8.65757869 11.04196565 8.59375 14.03125 C8.59379028 14.83357056 8.59383057 15.63589111 8.59387207 16.46252441 C8.58852641 18.15364443 8.57098422 19.8447646 8.54199219 21.53564453 C8.50012994 24.11698724 8.50092685 26.69571867 8.5078125 29.27734375 C8.49731904 30.92449721 8.48438008 32.57163728 8.46875 34.21875 C8.46854858 34.98658813 8.46834717 35.75442627 8.46813965 36.54553223 C8.36901692 41.05724744 7.80652434 44.04212988 5 47.625 C2.19084526 49.02957737 0.11189466 48.87395157 -3 48.625 C-6.1359157 46.84515595 -6.84102736 46.10191793 -8 42.625 C-8.27689497 37.37380951 -8.31339221 32.12304115 -8.35009766 26.86523438 C-8.36666642 25.12518955 -8.39396889 23.38521305 -8.43212891 21.64550781 C-8.48696881 19.13050214 -8.5087786 16.61708593 -8.5234375 14.1015625 C-8.54610687 13.32745026 -8.56877625 12.55333801 -8.59213257 11.75576782 C-8.57635093 7.70959063 -8.18164113 5.85663687 -5.65478516 2.63427734 C-3 0.625 -3 0.625 0 0 Z " fill="#030201" transform="translate(432,199.375)"/>
<path d="M0 0 C0.99 8.91 1.98 17.82 3 27 C-2.28 27 -7.56 27 -13 27 C-14.60093961 18.99530193 -15.50784981 11.14638072 -16 3 C-13.70887834 2.49750857 -11.41708499 1.99807883 -9.125 1.5 C-7.84882813 1.2215625 -6.57265625 0.943125 -5.2578125 0.65625 C-2 0 -2 0 0 0 Z " fill="#42A3D3" transform="translate(170,149)"/>
<path d="M0 0 C5.56860269 0.17180807 9.38317682 2.86380223 13.4375 6.5 C17.07369777 10.55432318 19.76569193 14.36889731 19.9375 19.9375 C19.4375 23.5 19.4375 23.5 17.4375 25.5 C11.06592006 25.6117821 7.40265102 23.73966334 2.55859375 19.66796875 C-1.4637728 15.55671012 -5.23464968 10.66768054 -5.83984375 4.8203125 C-5.35799228 0.78904811 -3.86921396 0.54304757 0 0 Z " fill="#FBFBFB" transform="translate(272.5625,43.5)"/>
<path d="M0 0 C4.64963504 2.29927007 4.64963504 2.29927007 6 5 C6.29123466 8.34919863 6.36462337 10.35756835 4.6875 13.3125 C1.52592843 16.47407157 -2.11841691 16.24837396 -6.375 16.375 C-10.79028114 16.3356218 -12.53327074 16.29941123 -16.3125 13.875 C-18.32483711 10.44657382 -18.81252952 8.9001417 -18 5 C-14.0594899 -1.71346165 -6.95616502 -1.03309382 0 0 Z " fill="#020406" transform="translate(266,152)"/>
<path d="M0 0 C4.64963504 2.29927007 4.64963504 2.29927007 6 5 C6.29123466 8.34919863 6.36462337 10.35756835 4.6875 13.3125 C1.52592843 16.47407157 -2.11841691 16.24837396 -6.375 16.375 C-10.79028114 16.3356218 -12.53327074 16.29941123 -16.3125 13.875 C-18.32483711 10.44657382 -18.81252952 8.9001417 -18 5 C-14.0594899 -1.71346165 -6.95616502 -1.03309382 0 0 Z " fill="#020406" transform="translate(194,152)"/>
<path d="M0 0 C4.0743356 0.84881992 5.54405875 2.30225596 8 5.625 C8.625 8.625 8.625 8.625 8 11.625 C5.54405875 14.94774404 4.0743356 16.40118008 0 17.25 C-4.0743356 16.40118008 -5.54405875 14.94774404 -8 11.625 C-8.625 8.625 -8.625 8.625 -8 5.625 C-5.54405875 2.30225596 -4.0743356 0.84881992 0 0 Z " fill="#0B0904" transform="translate(432,263.375)"/>
<path d="M0 0 C2.0625 1.5625 2.0625 1.5625 3 4 C3.17821261 6.85140177 2.92914963 9.292848 2 12 C-0.93837168 14.85194898 -2.53597436 15 -6.625 15 C-10 14 -10 14 -12 11.875 C-13.30782688 8.11499772 -13.06090617 5.81926223 -12 2 C-8.81688665 -2.07438508 -4.54417813 -1.38635943 0 0 Z " fill="#F9FAFA" transform="translate(309,73)"/>
</svg>
